<svg xmlns="http://www.w3.org/2000/svg" width="180" height="34.408" viewBox="0 0 180 34.408"><g transform="translate(-135 -24)"><g transform="translate(80.375 -329.259)"><path d="M447.211,427.181l.637-.066a1.533,1.533,0,0,0,.336.857.8.8,0,0,0,.606.282.93.93,0,0,0,.745-.4,1.713,1.713,0,0,0,.312-1.084,1.5,1.5,0,0,0-.3-1,.957.957,0,0,0-.76-.357.939.939,0,0,0-.515.155,1.061,1.061,0,0,0-.381.429l-.572-.09.482-3.1h2.455v.708h-1.97l-.267,1.619a1.408,1.408,0,0,1,.934-.379,1.392,1.392,0,0,1,1.079.529,2.1,2.1,0,0,1,.457,1.425,2.518,2.518,0,0,1-.457,1.516,1.45,1.45,0,0,1-1.233.63,1.466,1.466,0,0,1-1.084-.446,1.9,1.9,0,0,1-.5-1.235m-3-.375a1.662,1.662,0,0,0,.309,1.051.894.894,0,0,0,.714.4.8.8,0,0,0,.64-.375,1.672,1.672,0,0,0,.282-1.028,1.567,1.567,0,0,0-.281-1,.841.841,0,0,0-.682-.354.878.878,0,0,0-.689.351A1.44,1.44,0,0,0,444.212,426.806Zm2.479-2.6-.6.058a1.451,1.451,0,0,0-.255-.663.738.738,0,0,0-.584-.288.962.962,0,0,0-.851.658,4.012,4.012,0,0,0-.281,1.677,1.573,1.573,0,0,1,.527-.6,1.217,1.217,0,0,1,.671-.2,1.3,1.3,0,0,1,1.026.532,2.175,2.175,0,0,1,.438,1.425,2.638,2.638,0,0,1-.22,1.1,1.661,1.661,0,0,1-.566.726,1.317,1.317,0,0,1-.761.234,1.467,1.467,0,0,1-1.234-.674,3.969,3.969,0,0,1-.484-2.25,4.658,4.658,0,0,1,.5-2.49,1.489,1.489,0,0,1,1.274-.743,1.279,1.279,0,0,1,.945.385A1.826,1.826,0,0,1,446.691,424.208Zm-6.2,2.813a1.311,1.311,0,0,0,.3.894.921.921,0,0,0,.713.34.912.912,0,0,0,.712-.33,1.274,1.274,0,0,0,.292-.88,1.3,1.3,0,0,0-.3-.894.928.928,0,0,0-.718-.34.9.9,0,0,0-.706.338A1.294,1.294,0,0,0,440.49,427.021Zm.2-2.785a1.027,1.027,0,0,0,.234.708.756.756,0,0,0,1.144,0,.963.963,0,0,0,.234-.67,1,1,0,0,0-.242-.693.736.736,0,0,0-1.134-.005A.942.942,0,0,0,440.691,424.236Zm.115,1.255a1.206,1.206,0,0,1-.553-.472,1.432,1.432,0,0,1-.187-.762,1.566,1.566,0,0,1,.406-1.119,1.414,1.414,0,0,1,2.044.009,1.6,1.6,0,0,1,.408,1.136,1.4,1.4,0,0,1-.181.737,1.2,1.2,0,0,1-.546.472,1.375,1.375,0,0,1,.688.571,1.841,1.841,0,0,1,.241.978,1.863,1.863,0,0,1-.467,1.314,1.582,1.582,0,0,1-2.323,0,1.892,1.892,0,0,1-.468-1.333,1.826,1.826,0,0,1,.25-1A1.231,1.231,0,0,1,440.806,425.491Zm-2.316,3.269h-.608v-4.716a3.343,3.343,0,0,1-.564.5,3.589,3.589,0,0,1-.65.387v-.715a3.74,3.74,0,0,0,.887-.7,2.676,2.676,0,0,0,.541-.812h.394Zm-6.408-2.6h2a1.673,1.673,0,0,0-.241-.847.884.884,0,0,0-1.44-.067A1.477,1.477,0,0,0,432.082,426.157Zm1.995,1.2.625.094a1.9,1.9,0,0,1-.566,1.056,1.489,1.489,0,0,1-1.013.355,1.514,1.514,0,0,1-1.233-.577,2.589,2.589,0,0,1-.47-1.667,2.714,2.714,0,0,1,.475-1.725,1.476,1.476,0,0,1,1.2-.6,1.426,1.426,0,0,1,1.16.584,2.665,2.665,0,0,1,.465,1.69l0,.2h-2.674a1.9,1.9,0,0,0,.341,1.11.925.925,0,0,0,.741.375Q433.809,428.251,434.077,427.354Zm-3.387-.194.6.1a1.987,1.987,0,0,1-.516,1.192,1.354,1.354,0,0,1-.993.411,1.412,1.412,0,0,1-1.158-.577,2.726,2.726,0,0,1-.455-1.71,2.685,2.685,0,0,1,.459-1.708,1.448,1.448,0,0,1,1.178-.57,1.342,1.342,0,0,1,.936.345,1.7,1.7,0,0,1,.487,1.037l-.588.111a1.281,1.281,0,0,0-.3-.664.687.687,0,0,0-.514-.22.89.89,0,0,0-.743.4,2.144,2.144,0,0,0-.293,1.26,2.289,2.289,0,0,0,.282,1.291.851.851,0,0,0,.722.4.774.774,0,0,0,.59-.265A1.448,1.448,0,0,0,430.69,427.16Zm-6.017,1.6v-4.367h.547v.62a1.432,1.432,0,0,1,.483-.541,1.215,1.215,0,0,1,.657-.18,1.247,1.247,0,0,1,.532.114,1.1,1.1,0,0,1,.395.3,1.2,1.2,0,0,1,.224.475,3.962,3.962,0,0,1,.074.9v2.685h-.609V426.1a2.155,2.155,0,0,0-.083-.7.7.7,0,0,0-.257-.342.688.688,0,0,0-.4-.122.845.845,0,0,0-.695.326,1.824,1.824,0,0,0-.26,1.114v2.385Zm-1.363,0v-4.367h.605v4.367Zm0-5.177v-.852h.605v.852Zm-3.513,3.873.6-.115a1.075,1.075,0,0,0,.292.685.891.891,0,0,0,.633.224.881.881,0,0,0,.611-.2.64.64,0,0,0,.216-.5.483.483,0,0,0-.185-.4,2.374,2.374,0,0,0-.616-.246,4.529,4.529,0,0,1-.946-.371,1.044,1.044,0,0,1-.37-.407,1.252,1.252,0,0,1-.131-.58,1.221,1.221,0,0,1,.356-.91,1.363,1.363,0,0,1,.993-.349,1.618,1.618,0,0,1,.7.145,1.118,1.118,0,0,1,.464.386,1.7,1.7,0,0,1,.222.695l-.592.1a.711.711,0,0,0-.777-.716.919.919,0,0,0-.588.159.5.5,0,0,0-.192.4.457.457,0,0,0,.184.383,3.277,3.277,0,0,0,.658.262,5.266,5.266,0,0,1,.976.384.974.974,0,0,1,.345.388,1.282,1.282,0,0,1,.124.581,1.353,1.353,0,0,1-.4,1.012,1.492,1.492,0,0,1-1.084.386A1.411,1.411,0,0,1,419.8,427.456Z" transform="translate(-234.449 -44.587)" fill="#3d3d3c"/><path d="M309.935,422.688v1.662h.921v1.221h-.921v1.55a.844.844,0,0,0,.053.371.306.306,0,0,0,.287.14,1.831,1.831,0,0,0,.518-.108l.124,1.157a5.487,5.487,0,0,1-1.159.135,2.013,2.013,0,0,1-.921-.16.972.972,0,0,1-.438-.487,2.857,2.857,0,0,1-.142-1.06v-1.537h-.617V424.35h.617v-.8Zm-7.21,4.82,1.662-.157a.814.814,0,0,0,.288.424.849.849,0,0,0,.494.128.828.828,0,0,0,.522-.145.319.319,0,0,0,.143-.267.306.306,0,0,0-.188-.279,3.533,3.533,0,0,0-.72-.173,7.508,7.508,0,0,1-1.211-.282,1.283,1.283,0,0,1-.571-.438,1.13,1.13,0,0,1-.233-.7,1.154,1.154,0,0,1,.251-.744,1.485,1.485,0,0,1,.691-.467,3.679,3.679,0,0,1,1.181-.155,4.13,4.13,0,0,1,1.154.119,1.509,1.509,0,0,1,.621.371,1.959,1.959,0,0,1,.414.678l-1.588.157a.545.545,0,0,0-.206-.309.837.837,0,0,0-.477-.132.673.673,0,0,0-.413.1.3.3,0,0,0-.129.244.26.26,0,0,0,.164.243,2.664,2.664,0,0,0,.716.149,4.928,4.928,0,0,1,1.241.262,1.357,1.357,0,0,1,.623.482,1.176,1.176,0,0,1,.216.687,1.347,1.347,0,0,1-.229.737,1.539,1.539,0,0,1-.719.569,3.451,3.451,0,0,1-1.339.212,3.18,3.18,0,0,1-1.7-.341A1.542,1.542,0,0,1,302.725,427.508Zm-2.093-.865q-.345.124-.718.219a1.654,1.654,0,0,0-.646.267.428.428,0,0,0,0,.631.588.588,0,0,0,.406.125,1.056,1.056,0,0,0,.521-.135.837.837,0,0,0,.341-.331,1.111,1.111,0,0,0,.1-.508Zm-1.451-.88-1.6-.168a1.79,1.79,0,0,1,.261-.66,1.431,1.431,0,0,1,.491-.417,2.034,2.034,0,0,1,.633-.2,5.141,5.141,0,0,1,.872-.07,6.916,6.916,0,0,1,1.209.084,1.548,1.548,0,0,1,.761.352,1.231,1.231,0,0,1,.338.524,1.922,1.922,0,0,1,.122.648v1.928a2.373,2.373,0,0,0,.039.483,2.165,2.165,0,0,0,.171.446h-1.571a1.609,1.609,0,0,1-.123-.257,1.915,1.915,0,0,1-.058-.278,2.146,2.146,0,0,1-.654.452,2.722,2.722,0,0,1-1.032.181,1.733,1.733,0,0,1-1.188-.362,1.147,1.147,0,0,1-.4-.891,1.163,1.163,0,0,1,.292-.818,1.964,1.964,0,0,1,1.076-.477q.943-.19,1.223-.265a5.8,5.8,0,0,0,.591-.2.592.592,0,0,0-.126-.432.644.644,0,0,0-.449-.124,1.166,1.166,0,0,0-.616.132A.727.727,0,0,0,299.181,425.763Zm-4.022-3.075h1.679v6.029h-1.679Zm-6.1,3.853a1.307,1.307,0,0,0,.237.863.772.772,0,0,0,1.187,0,1.354,1.354,0,0,0,.233-.884,1.292,1.292,0,0,0-.234-.845.732.732,0,0,0-.58-.276.76.76,0,0,0-.6.281A1.308,1.308,0,0,0,289.054,426.541Zm-1.677,0a2.185,2.185,0,0,1,.674-1.646,2.924,2.924,0,0,1,3.8.112,2.379,2.379,0,0,1-.129,3.161,2.556,2.556,0,0,1-1.849.643,2.594,2.594,0,0,1-1.7-.535A2.143,2.143,0,0,1,287.377,426.545Zm-1.263-3.857v1.662h.921v1.221h-.921v1.55a.844.844,0,0,0,.053.371.307.307,0,0,0,.288.14,1.832,1.832,0,0,0,.518-.108l.124,1.157a5.484,5.484,0,0,1-1.159.135,2.015,2.015,0,0,1-.921-.16.973.973,0,0,1-.438-.487,2.857,2.857,0,0,1-.142-1.06v-1.537h-.618V424.35h.618v-.8Zm-5.64,0v1.662h.921v1.221h-.921v1.55a.845.845,0,0,0,.053.371.307.307,0,0,0,.288.14,1.832,1.832,0,0,0,.518-.108l.123,1.157a5.484,5.484,0,0,1-1.159.135,2.013,2.013,0,0,1-.921-.16.973.973,0,0,1-.438-.487,2.857,2.857,0,0,1-.142-1.06v-1.537h-.618V424.35h.618v-.8Zm-4.516,0h1.679v6.029h-1.679Zm-2.549,1.662h1.675v4.367h-1.675Zm0-1.662h1.675v1.14h-1.675Zm-.826,6.029H271.02v-.707a2.275,2.275,0,0,1-.7.62,1.878,1.878,0,0,1-.875.185,1.426,1.426,0,0,1-1.084-.413,1.8,1.8,0,0,1-.392-1.273V424.35h1.682v2.4a.888.888,0,0,0,.151.584.541.541,0,0,0,.428.173.609.609,0,0,0,.491-.23,1.329,1.329,0,0,0,.191-.827v-2.1h1.675Zm-8.908-1.3h.95a1.042,1.042,0,0,0,.678-.17.575.575,0,0,0,.2-.459.528.528,0,0,0-.2-.43,1.091,1.091,0,0,0-.685-.163h-.946Zm0-2.368h.81a.94.94,0,0,0,.607-.15.549.549,0,0,0,.17-.434.515.515,0,0,0-.17-.411.915.915,0,0,0-.595-.149h-.823Zm-1.879-2.366h3.488a1.9,1.9,0,0,1,1.338.432,1.4,1.4,0,0,1,.467,1.068,1.354,1.354,0,0,1-.333.918,1.483,1.483,0,0,1-.65.4,1.7,1.7,0,0,1,.956.537,1.48,1.48,0,0,1,.306.956,1.652,1.652,0,0,1-.217.843,1.612,1.612,0,0,1-.6.592,1.967,1.967,0,0,1-.707.2,8.217,8.217,0,0,1-.835.083H261.8Z" transform="translate(-133.009 -44.575)" fill="#3d3d3c"/><path d="M401.677,436.451a.639.639,0,1,1-.639.639.639.639,0,0,1,.639-.639" transform="translate(-222.405 -53.411)" fill="#3d3d3c" fill-rule="evenodd"/><path d="M407.137,436.451a.639.639,0,1,1-.639.639.639.639,0,0,1,.639-.639" transform="translate(-225.911 -53.411)" fill="#3d3d3c" fill-rule="evenodd"/><path d="M412.886,436.451a.639.639,0,1,1-.639.639.639.639,0,0,1,.639-.639" transform="translate(-229.602 -53.411)" fill="#3d3d3c" fill-rule="evenodd"/><path d="M275.9,376h3.157v8.232H275.9Zm0-3.133h3.157v2.149H275.9ZM272.1,376h3.165v7.983a7.336,7.336,0,0,1-.222,2.164,2.007,2.007,0,0,1-.818,1.029,3.072,3.072,0,0,1-1.707.4,11.871,11.871,0,0,1-2.27-.272l.474-2.294a3.217,3.217,0,0,0,.558.077.718.718,0,0,0,.611-.275,1.953,1.953,0,0,0,.209-1.1Zm0-3.133h3.165v2.17H272.1ZM265.781,376h2.953v1.347a3.246,3.246,0,0,1,.881-1.2,1.851,1.851,0,0,1,1.119-.331,3.338,3.338,0,0,1,1.526.434l-.976,2.249a2.445,2.445,0,0,0-.884-.233,1.093,1.093,0,0,0-.96.511,5.2,5.2,0,0,0-.49,2.7v2.76h-3.17Zm-6.363,4.13a2.465,2.465,0,0,0,.447,1.627,1.455,1.455,0,0,0,2.239.008,2.558,2.558,0,0,0,.439-1.667,2.434,2.434,0,0,0-.442-1.593,1.379,1.379,0,0,0-1.093-.521,1.433,1.433,0,0,0-1.14.529A2.467,2.467,0,0,0,259.418,380.134Zm-3.162.008a4.12,4.12,0,0,1,1.27-3.1,5.512,5.512,0,0,1,7.171.212,4.485,4.485,0,0,1-.243,5.959,4.818,4.818,0,0,1-3.485,1.212,4.891,4.891,0,0,1-3.21-1.008A4.04,4.04,0,0,1,256.256,380.143Zm-5.945-.008a2.465,2.465,0,0,0,.447,1.627,1.455,1.455,0,0,0,2.238.008,2.556,2.556,0,0,0,.439-1.667,2.434,2.434,0,0,0-.442-1.593,1.379,1.379,0,0,0-1.093-.521,1.434,1.434,0,0,0-1.141.529A2.469,2.469,0,0,0,250.312,380.134Zm-3.162.008a4.12,4.12,0,0,1,1.27-3.1,5.512,5.512,0,0,1,7.171.212,4.484,4.484,0,0,1-.243,5.959,4.818,4.818,0,0,1-3.485,1.212,4.891,4.891,0,0,1-3.21-1.008A4.04,4.04,0,0,1,247.15,380.143Zm-5.54,0a2.16,2.16,0,0,0,.41,1.45,1.314,1.314,0,0,0,1.037.474,1.146,1.146,0,0,0,.924-.455,2.447,2.447,0,0,0,.373-1.538,2.276,2.276,0,0,0-.389-1.468,1.177,1.177,0,0,0-.944-.471,1.269,1.269,0,0,0-1.008.474A2.349,2.349,0,0,0,241.61,380.143Zm-3.165,7.226V376H241.4v1.217a3.908,3.908,0,0,1,1.124-1.04,3.21,3.21,0,0,1,1.527-.365,2.963,2.963,0,0,1,2.556,1.265,5.242,5.242,0,0,1,.9,3.125,4.51,4.51,0,0,1-.984,3.136,3.224,3.224,0,0,1-2.487,1.08,3.472,3.472,0,0,1-1.331-.246,3.2,3.2,0,0,1-1.074-.738v3.932Zm-3.666-7.041q-.651.234-1.355.413a3.131,3.131,0,0,0-1.217.5.807.807,0,0,0-.005,1.191,1.112,1.112,0,0,0,.765.235,1.981,1.981,0,0,0,.982-.254,1.574,1.574,0,0,0,.643-.625,2.09,2.09,0,0,0,.188-.958Zm-2.736-1.659-3.014-.318a3.38,3.38,0,0,1,.493-1.243,2.7,2.7,0,0,1,.926-.786,3.827,3.827,0,0,1,1.193-.373,9.655,9.655,0,0,1,1.643-.132,13.04,13.04,0,0,1,2.278.159,2.92,2.92,0,0,1,1.434.664,2.324,2.324,0,0,1,.638.987,3.624,3.624,0,0,1,.23,1.223v3.636a4.462,4.462,0,0,0,.074.91,4.084,4.084,0,0,0,.323.841H235.3a3.047,3.047,0,0,1-.233-.484,3.561,3.561,0,0,1-.108-.524,4.036,4.036,0,0,1-1.233.852,5.124,5.124,0,0,1-1.945.342,3.262,3.262,0,0,1-2.238-.683,2.16,2.16,0,0,1-.762-1.68,2.195,2.195,0,0,1,.55-1.543,3.707,3.707,0,0,1,2.029-.9q1.778-.358,2.3-.5a10.923,10.923,0,0,0,1.114-.376,1.119,1.119,0,0,0-.238-.815,1.218,1.218,0,0,0-.847-.233,2.2,2.2,0,0,0-1.161.249A1.369,1.369,0,0,0,232.043,378.669Zm-11.983-5.8h3.157v4.186a4.238,4.238,0,0,1,1.278-.953,3.609,3.609,0,0,1,1.506-.289,2.661,2.661,0,0,1,2.026.783,3.4,3.4,0,0,1,.738,2.4v5.234H225.6v-4.527a1.649,1.649,0,0,0-.286-1.1,1.021,1.021,0,0,0-.807-.323,1.145,1.145,0,0,0-.929.434,2.523,2.523,0,0,0-.357,1.558v3.953h-3.157Zm-10.385,7.6,3.342-.209a2.552,2.552,0,0,0,.442,1.241,1.851,1.851,0,0,0,1.55.688,1.718,1.718,0,0,0,1.159-.352,1.059,1.059,0,0,0,.4-.818,1.041,1.041,0,0,0-.386-.791,4.481,4.481,0,0,0-1.8-.659,7.639,7.639,0,0,1-3.294-1.379A2.775,2.775,0,0,1,210.1,376a2.977,2.977,0,0,1,.508-1.656,3.382,3.382,0,0,1,1.526-1.225,7.148,7.148,0,0,1,2.794-.445,5.721,5.721,0,0,1,3.323.81,3.5,3.5,0,0,1,1.36,2.577l-3.31.193a1.545,1.545,0,0,0-1.72-1.463,1.4,1.4,0,0,0-.924.26.8.8,0,0,0-.309.632.633.633,0,0,0,.254.487,2.878,2.878,0,0,0,1.18.418,14.709,14.709,0,0,1,3.3,1.006,3.456,3.456,0,0,1,1.45,1.259,3.2,3.2,0,0,1,.455,1.683,3.605,3.605,0,0,1-.606,2.014,3.762,3.762,0,0,1-1.691,1.4,6.828,6.828,0,0,1-2.736.476q-2.9,0-4.014-1.117A4.389,4.389,0,0,1,209.676,380.476Z" transform="translate(-99.546 -12.467)" fill="#003792"/><path d="M461.9,375.778h3.157v8.232H461.9Zm0-3.133h3.157v2.149H461.9Zm-3.8,3.133h3.165v7.983a7.334,7.334,0,0,1-.222,2.165,2.006,2.006,0,0,1-.818,1.029,3.072,3.072,0,0,1-1.707.4,11.848,11.848,0,0,1-2.27-.273l.474-2.294a3.241,3.241,0,0,0,.558.077.717.717,0,0,0,.611-.275,1.95,1.95,0,0,0,.209-1.1Zm0-3.133h3.165v2.17H458.1Zm-9.231,3.133h2.94v1.339a4.365,4.365,0,0,1,1.334-1.172,3.5,3.5,0,0,1,1.643-.355,2.7,2.7,0,0,1,2.05.781,3.39,3.39,0,0,1,.738,2.405v5.234H454.4v-4.527a1.649,1.649,0,0,0-.286-1.1,1.021,1.021,0,0,0-.807-.323,1.145,1.145,0,0,0-.929.434,2.523,2.523,0,0,0-.357,1.558v3.953h-3.157Zm-6.331,4.13a2.465,2.465,0,0,0,.447,1.627,1.455,1.455,0,0,0,2.238.008,2.554,2.554,0,0,0,.439-1.667,2.436,2.436,0,0,0-.442-1.593,1.38,1.38,0,0,0-1.093-.521,1.433,1.433,0,0,0-1.14.529A2.464,2.464,0,0,0,442.538,379.908Zm-3.162.008a4.12,4.12,0,0,1,1.27-3.1,5.513,5.513,0,0,1,7.171.212,4.485,4.485,0,0,1-.243,5.959,4.818,4.818,0,0,1-3.485,1.212,4.889,4.889,0,0,1-3.209-1.008A4.039,4.039,0,0,1,439.376,379.916Zm-3.309-7.271h3.164v11.364h-3.164Zm-3.8,0h3.164v11.364h-3.164Zm-3.6,7.456q-.651.234-1.355.413a3.138,3.138,0,0,0-1.217.5.807.807,0,0,0-.005,1.191,1.11,1.11,0,0,0,.765.236,1.981,1.981,0,0,0,.982-.254,1.572,1.572,0,0,0,.643-.625,2.091,2.091,0,0,0,.188-.958Zm-2.736-1.659-3.013-.318a3.385,3.385,0,0,1,.492-1.244,2.7,2.7,0,0,1,.926-.786,3.827,3.827,0,0,1,1.194-.373,9.657,9.657,0,0,1,1.643-.132,13.037,13.037,0,0,1,2.278.159,2.92,2.92,0,0,1,1.434.664,2.324,2.324,0,0,1,.638.987,3.621,3.621,0,0,1,.23,1.223v3.636a4.493,4.493,0,0,0,.074.91,4.129,4.129,0,0,0,.323.841h-2.96a3.08,3.08,0,0,1-.233-.484,3.649,3.649,0,0,1-.108-.524,4.035,4.035,0,0,1-1.233.852,5.125,5.125,0,0,1-1.945.342,3.262,3.262,0,0,1-2.238-.683,2.161,2.161,0,0,1-.762-1.68,2.195,2.195,0,0,1,.55-1.543,3.707,3.707,0,0,1,2.029-.9q1.778-.358,2.305-.5a10.966,10.966,0,0,0,1.114-.376,1.117,1.117,0,0,0-.238-.815,1.218,1.218,0,0,0-.847-.233,2.194,2.194,0,0,0-1.162.249A1.372,1.372,0,0,0,425.924,378.442Zm-8.863-.953h.86a2.212,2.212,0,0,0,1.426-.352,1.141,1.141,0,0,0,.411-.9,1.258,1.258,0,0,0-.357-.907,1.836,1.836,0,0,0-1.339-.373h-1Zm-3.527-4.845h5.837a3.986,3.986,0,0,1,2.855.907,3.4,3.4,0,0,1,.95,2.58,3.5,3.5,0,0,1-1.035,2.691,4.489,4.489,0,0,1-3.159.968h-1.921v4.218h-3.527Z" transform="translate(-230.428 -12.446)" fill="#0079ba"/><path d="M57.427,407.148l11.793.553s6.1-1.75,6.183-2.151-.083-5.843-.083-5.843Z" transform="translate(-1.799 -29.821)" fill="#b7b8b8" fill-rule="evenodd"/><path d="M54.674,386.742H65.756l11.452-3.13,3.459,1.762,5.012-1.332L85.647,379l16.042-.687-16.991-6.4.21-.517,14.783,3.02.731-4.336-20.4-15.3-.87.372-.817-.37-16,12.739-3.141,2.5-.047,4.242,7.1-3.171,6.7,1.716,3.042,6.077-.546.5-19.084,4.985Z" transform="translate(-0.031 -0.975)" fill="#d0d1d1" fill-rule="evenodd"/><path d="M165.88,397.466l-7.961.186,8.313,3.483Z" transform="translate(-66.317 -28.382)" fill="#fff" fill-rule="evenodd"/><path d="M67.065,397.695l7.682.171-8.033,3.5Z" transform="translate(-7.761 -28.529)" fill="#fff" fill-rule="evenodd"/><path d="M141.885,369.687a1.015,1.015,0,0,0-.352-.806,7.778,7.778,0,0,0-1.277-.682l-17.078-8.852,0-6.083c7.032,3.6,15.987,8.143,22.141,11.34a4.1,4.1,0,0,1,2.171,3.807c.069,1.933.11,4.372,0,6.295a2.914,2.914,0,0,1-1.192,2.483c-.51.183-1,.384-2.779-.251l-13.057-4.777c-.887-.325-.789.519-.812.9l.01,10.007-4.628-2.717A1.888,1.888,0,0,1,124,378.366v-.507l0-10.53c.069-2.585,1.479-2.7,4.1-1.734l13.067,5.413a.5.5,0,0,0,.713-.411c.021-.544.016-.521.011-.909" transform="translate(-44.011 -0.003)" fill="#0079ba"/><path d="M54.625,380.087l16.624-5.562c.369-.124.7-.246,1.062-.389.29-.116.51-.231.509-.546l.007-1.1c.031-.543-.256-.728-1-.432L58.149,377.1a4.573,4.573,0,0,1-2.611.225c-.761-.239-.844-1.1-.846-2.587,0-1.552-.024-3.439-.009-5.205a5.782,5.782,0,0,1,.552-2.633,5.052,5.052,0,0,1,1.752-1.683c.473-.313.959-.6,1.375-.885l20.805-11.078.091,6.124-18.063,9.6c-.422.225-.836.365-.841.754-.005.406-.008.647-.008,1.051,0,.192.155.432.686.251l13.248-5.661c1.178-.493,4.279-1.062,4.125,2.807l-.006,7.492c-.11,1.081.264,2.973-2.526,3.935l-21.229,6.151Z" fill="#003792"/><path d="M134.767,449.311l-.016.024.016-.024" transform="translate(-51.443 -61.668)" fill="#1a1b1b"/></g></g></svg>