<svg xmlns="http://www.w3.org/2000/svg" viewBox="0 0 724.4 114.4"><defs><style>.a{fill:#fff;}.a,.b,.c,.d,.f{fill-rule:evenodd;}.b,.c{fill:#e11314;}.c{stroke:#e2010f;}.c,.f{stroke-miterlimit:10;stroke-width:0.22px;}.d,.e,.f{fill:#005da7;}.f{stroke:#005da7;}</style></defs><path class="a" d="M131,79.3c38.3,0,69.6,24.7,69.6,55.1s-31.3,55-69.6,55-69.6-24.7-69.6-55S92.7,79.3,131,79.3Z" transform="translate(-58.7 -77.1)"/><path class="b" d="M131,77.4c39.7,0,72,25.6,72,57s-32.3,56.9-72,56.9-72.1-25.6-72.1-56.9,32.4-57,72.1-57Zm0,3.9c-38,0-69.1,23.8-69.1,53.1s31.1,53,69.1,53,69-23.8,69-53S169,81.3,131,81.3Z" transform="translate(-58.7 -77.1)"/><path class="c" d="M131,81.5c-38,0-68.9,23.7-68.9,52.9S93,187.2,131,187.2s68.9-23.7,68.9-52.8S169,81.5,131,81.5Zm0,106c-38.2,0-69.2-23.8-69.2-53.1s31-53.2,69.2-53.2,69.2,23.8,69.2,53.2-31.1,53.1-69.2,53.1Zm0-110c39.6,0,71.9,25.5,71.9,56.9s-32.3,56.8-71.9,56.8-71.9-25.5-71.9-56.8S91.3,77.5,131,77.5Zm0,114c-39.8,0-72.2-25.7-72.2-57.1S91.2,77.2,131,77.2s72.2,25.7,72.2,57.2S170.8,191.5,131,191.5Z" transform="translate(-58.7 -77.1)"/><path class="d" d="M131,86.7c34.9,0,63.4,21.4,63.4,47.7S165.9,182,131,182s-63.4-21.4-63.4-47.6S96.1,86.7,131,86.7Zm0,3.3c-33.5,0-60.8,19.9-60.8,44.4s27.3,44.4,60.8,44.4,60.8-20,60.8-44.4S164.5,90,131,90Z" transform="translate(-58.7 -77.1)"/><path class="d" d="M131,86h0c17.6,0,33.6,5.4,45.2,14.1s18.9,20.9,18.9,34.3h0c0,13.3-7.2,25.4-18.9,34.2s-27.6,14.1-45.2,14.1h0c-17.6,0-33.6-5.4-45.2-14.1s-18.9-20.9-18.9-34.2h0c0-13.4,7.2-25.5,18.9-34.3S113.4,86,131,86Zm0,1.4h0c-17.3,0-33,5.3-44.4,13.8s-18.3,20.2-18.3,33.2h0c0,12.9,7,24.6,18.3,33.1s27.1,13.8,44.4,13.8h0c17.3,0,33-5.3,44.4-13.8s18.3-20.2,18.3-33.1h0c0-13-7-24.7-18.3-33.2S148.3,87.4,131,87.4Zm0,1.8h0c-16.9,0-32.3,5.1-43.4,13.2s-18.1,19.5-18.1,32h0c0,12.4,6.9,23.7,18.1,31.9s26.5,13.1,43.4,13.1h0c16.9,0,32.2-5,43.3-13.1s18.2-19.5,18.2-31.9h0c0-12.5-7-23.8-18.1-32S147.9,89.2,131,89.2Zm0,1.4h0c-16.6,0-31.7,5-42.6,12.9s-17.5,18.9-17.5,30.9h0c0,12,6.7,22.9,17.5,30.8s26,12.9,42.6,12.9h0c16.6,0,31.6-5,42.5-12.9s17.6-18.8,17.6-30.8h0c0-12-6.7-22.9-17.6-30.9S147.6,90.6,131,90.6Z" transform="translate(-58.7 -77.1)"/><path class="d" d="M160.6,135a18.4,18.4,0,0,1-9.9,1.4,27.4,27.4,0,0,1-8.5-2.8l-1.7.6-2.1.6a25.8,25.8,0,0,1-10,.4,3,3,0,0,0,.4,1c.8,1.6,2.6,2.9,5.2,3.6l-.5,1.6c-3.1-.8-5.2-2.3-6.3-4.4-.2-.4-.3-.8-.5-1.3h0l-.3-1.4h0v-1.2l1.2.2a24.7,24.7,0,0,0,10.5-.2l2-.5,1.9-.7h.4l.4.2a28.1,28.1,0,0,0,8.3,2.8,15.9,15.9,0,0,0,8.9-1.3Z" transform="translate(-58.7 -77.1)"/><path class="d" d="M143,140.6h0l-1.8-.2a12,12,0,0,0-1.9,0,10.7,10.7,0,0,0-8.1,3.1h0a10.9,10.9,0,0,0-1.3,1.7,9.5,9.5,0,0,0-1,1.7,15.9,15.9,0,0,0-.7,9.9l-1.6.4a16.6,16.6,0,0,1,.8-11,7.8,7.8,0,0,1,1.1-2l1.4-1.9h0c2.3-2.5,5.8-3.6,9.4-3.7h2l2,.2h0Z" transform="translate(-58.7 -77.1)"/><rect class="e" x="80" y="115.6" width="4.4" height="26.85" transform="translate(-129.1 41.4) rotate(-53.6)"/><rect class="e" x="86.3" y="106.3" width="4.4" height="32.42" transform="translate(-121.3 47) rotate(-54.8)"/><polygon class="d" points="23.4 27.7 49.9 46.4 47.4 49.9 20.9 31.2 23.4 27.7"/><polygon class="d" points="30.3 21.8 56.8 40.5 54.3 44.1 27.8 25.4 30.3 21.8"/><polygon class="d" points="39.4 17.8 65.8 36.5 63.3 40.1 36.9 21.4 39.4 17.8"/><polygon class="f" points="133.9 49.3 112.3 61.7 110.1 58 131.7 45.5 133.9 49.3"/><rect class="e" x="159.6" y="122.1" width="30.1" height="4.35" transform="translate(-97.4 26.5) rotate(-29.9)"/><polygon class="d" points="125.7 34 99.6 49 97.4 45.3 123.5 30.2 125.7 34"/><rect class="e" x="148.8" y="108.1" width="30.1" height="4.35" transform="translate(-91.9 19.3) rotate(-29.9)"/><rect class="e" x="136.2" y="100.9" width="25.4" height="4.35" transform="translate(-65.4 118.6) rotate(-65.5)"/><rect class="e" x="127.3" y="99.1" width="25.4" height="4.36" transform="translate(-69 109.5) rotate(-65.5)"/><rect class="e" x="118" y="98.2" width="25.4" height="4.35" transform="translate(-73.5 100.5) rotate(-65.5)"/><path class="a" d="M162.9,134.6v-.4c0-13.9-14.3-25.2-31.8-25.2s-30.8,10.2-31.9,23.5l-4.3-2.8H71.5v3.6l30.5.5a21.4,21.4,0,0,1,9.5-16.5c4.5-3.2,11.8-5.6,19.6-5.8a34.2,34.2,0,0,1,20.5,6.6c4.9,3.9,9.2,9.5,9,16.4Z" transform="translate(-58.7 -77.1)"/><polygon class="d" points="69.2 12.7 60.8 31.1 56.9 29.3 65.3 10.9 69.2 12.7"/><rect class="e" x="106" y="93.8" width="14" height="4.35" transform="translate(-79.9 81.8) rotate(-65.5)"/><polygon class="a" points="63.7 29.5 49.3 18.9 46.6 22.5 61.1 32.6 63.7 29.5"/><rect class="e" x="151.5" y="99.9" width="18.7" height="4.35" transform="translate(-88.2 16.7) rotate(-29.9)"/><polygon class="a" points="94.9 32.6 98.9 22.8 95.2 22.4 90.3 32.5 94.9 32.6"/><path class="d" d="M69.2,133.5l33.1.4c-.6,5.2,4.3,13.1,9.9,16.9s13,5.7,18.7,5.6,15-1.9,19.9-5.5,9.5-11.1,9.6-17.1h32.7c1.7,9.5-6.6,23.3-14.9,30.1-10.2,8.6-23.6,13.7-41.9,16.9-21.7.3-36.9-5.9-48.4-13.3S69.9,146.4,69.2,133.5Z" transform="translate(-58.7 -77.1)"/><path class="b" d="M160.5,134c-1.4-2.3-2.7-5.3-6.3-6.2s-5.2.7-6.9,2.1c-1.3-2.3-1.5-5.3-6.7-6.5s-7.2.9-9.3,3.2c-1.7-2-4-4.1-8.1-3.7a8.6,8.6,0,0,0-7.8,6.7,7.5,7.5,0,0,0-7.2-2.7c-4,.7-4.7,4.1-5.7,7.2-2.8-11.1,13-22.9,28.7-22.5S160.5,121.6,160.5,134Z" transform="translate(-58.7 -77.1)"/><path class="b" d="M130.5,111.6c-9.5,0-19.7,4.7-24.9,11.3-2.8,3.6-3.9,7.4-3.1,10.9a.4.4,0,0,0,.1-.3c.9-2.9,1.8-6,5.6-6.6l1.4-.2a7.9,7.9,0,0,1,5.8,2.8,8.8,8.8,0,0,1,7.8-6.7h1c3.4,0,5.4,1.8,7.1,3.7,2.2-2.3,4.5-3.5,7-3.5a9.9,9.9,0,0,1,2.4.3c4.2,1,5.1,3.1,6,5.2a5.2,5.2,0,0,0,.6,1.3l.3-.2a6.9,6.9,0,0,1,4.7-2.1l1.9.3c3.1.7,4.5,3.1,5.7,5.2l.5.7c-.2-11.8-13.2-21.7-29.2-22.1Zm-27.9,22.5h-.1c-1-3.7.1-7.5,3-11.2a27.7,27.7,0,0,1,10.6-8.1,33.6,33.6,0,0,1,14.4-3.3h.7a36.1,36.1,0,0,1,20.5,6.7c5.7,4.3,8.8,9.9,8.8,15.8h-.1l-.6-1c-1.2-2-2.5-4.4-5.7-5.1l-1.8-.2a7.3,7.3,0,0,0-4.7,2l-.3.3h-.1a10.1,10.1,0,0,1-.7-1.5c-.8-2-1.7-4.1-5.9-5.1a8.5,8.5,0,0,0-2.3-.3q-3.7,0-6.9,3.6h-.1c-1.7-2-3.7-3.8-7.1-3.8h-1a8.5,8.5,0,0,0-7.7,6.6v.2h0a7.4,7.4,0,0,0-7.2-2.7c-3.7.7-4.6,3.7-5.4,6.5A1.4,1.4,0,0,0,102.6,134.1Z" transform="translate(-58.7 -77.1)"/><path class="d" d="M267.9,136.3c12.4,0,13.5-1.2,13.5-9.5v-.9c0-8.3-1.1-9.6-13.5-9.6H248.7v20Zm-19.2,32.6H232.2V101.4h38.5c22,0,27,4,27,24.1v1.8c0,20.2-5,24.1-27,24.1h-22Z" transform="translate(-58.7 -77.1)"/><path class="d" d="M347.6,142.7l-11.5-27.1h-.4l-11.5,27.1Zm29.1,26.2H358.8l-5.2-12.1H318.3l-5.1,12.1H295.4l30.4-67.5h20.4Z" transform="translate(-58.7 -77.1)"/><path class="d" d="M420.8,135.5c11.5,0,12.9-1.3,12.9-9.1v-1.2c0-7.6-1.5-8.9-12.9-8.9H400.1v19.2Zm29.7,33.4H434v-5.5c0-11.9-1.8-13.3-17.3-13.3H400.1v18.8H383.6V101.4h43.9c18.4,0,23,5,23,20.6v2.3c0,10.6-2.7,15.8-9.8,17.8v.4c8,1.5,9.8,4.2,9.8,16.1Z" transform="translate(-58.7 -77.1)"/><path class="d" d="M508.9,142.7l-11.5-27.1H497l-11.5,27.1ZM538,168.9H520.1l-5.2-12.1H479.6l-5.1,12.1H456.7l30.4-67.5h20.4Z" transform="translate(-58.7 -77.1)"/><path class="d" d="M612.2,148.4c0,16.8-4.1,21.3-31.5,21.3h-2.6c-31.8,0-34.7-3.4-34.7-20.5v-2.4h16.5v1.7c0,5.7,2.3,6.7,17,6.7h2c16,0,17-1.3,17-6.3v-.4c0-5.3-1.2-6.3-18.1-6.3-30.9,0-33.9-3.4-33.9-20.4v-.5c0-16.8,4.4-20.7,29.8-20.7h3.4c30.7,0,33.4,4.9,33.4,20v2.1H594.1v-1.1c0-4.9-1.1-6.7-14.4-6.7h-2.5c-15.8,0-17,.8-17,6.4v.4c0,4.8,1,5.4,19.4,5.4,28.5,0,32.6,2.9,32.6,20.9Z" transform="translate(-58.7 -77.1)"/><path class="d" d="M660.6,154.1c19.5,0,20.4-1.5,20.4-18.4v-1.1c0-17.3-.9-18.7-20.4-18.7h-1.4c-19.4,0-20.4,1.4-20.4,18.7v1.1c0,16.9,1,18.4,20.4,18.4Zm-1.9,15.6c-32.1,0-36.7-3.7-36.7-33.6v-1.9c0-30,4.6-33.6,36.7-33.6h2.5c32,0,36.6,3.6,36.6,33.6v1.9c0,30-4.6,33.6-36.6,33.6Z" transform="translate(-58.7 -77.1)"/><polygon class="d" points="724.4 91.7 699.5 91.7 666.8 41.3 666.5 41.3 666.5 91.7 650.2 91.7 650.2 24.3 675.4 24.3 707.8 74.8 708.1 74.8 708.1 24.3 724.4 24.3 724.4 91.7"/><path class="a" d="M80.4,151.1c1.4,2.7,2.5,2,4.6.6l5.3-3.4c1.8-1.2,1.6-1.9.4-3.8l-10.3,6.6Zm-5.3-1.9,16.1-10.3,2.6,4.1a9.9,9.9,0,0,1,2,4.7c.1,2-1.3,3.3-2.9,4.3l-7.2,4.5a4.5,4.5,0,0,1-4.5.7,8.1,8.1,0,0,1-2.9-2.9Z" transform="translate(-58.7 -77.1)"/><polygon class="a" points="28 87.2 39.2 71.6 47.6 77.6 45.4 80.7 40.6 77.3 38.6 80.2 43.2 83.5 40.9 86.6 36.4 83.3 33.9 86.7 38.9 90.2 36.7 93.3 28 87.2"/><path class="a" d="M105.9,168.3l-.5,1.2c-.4,1.1-.4,2.1,1,2.6s1.7-.4,2-1.3-.4-2.5-1.3-3.6a14,14,0,0,1-2.3-3.5,6.4,6.4,0,0,1,.1-4.1c1.3-3.3,4-4.3,7.2-3.1s4.6,4.5,3.2,7.8l-3.9-1.4c.4-1.1.9-2.5-.4-3.1a1.4,1.4,0,0,0-1.9.6,2.4,2.4,0,0,0,.4,2.7c1.2,1.6,2.4,2.7,3,4a5.9,5.9,0,0,1,0,4.9c-1.3,3.4-4,4.6-7.5,3.3s-4.6-4.2-3.7-6.6l.7-1.9Z" transform="translate(-58.7 -77.1)"/><path class="a" d="M123.5,163.3h-.1l-2.3,8.4,2.6.3-.2-8.7ZM114.7,178l6.5-18.5,5.4.7,1.8,19.5-4.6-.5v-3.8l-3.5-.4-1,3.6Z" transform="translate(-58.7 -77.1)"/><path class="a" d="M136.1,168.3l1.5-.2c1.3-.1,1.5-1.3,1.4-2.5s-1.2-2.3-3.4-2l.5,4.7Zm1.1,10.9-4.4.5-2-19.1,6.5-.6c3.7-.4,5.7.9,6.1,4.7.2,2-.2,3.5-1.9,4.5h0a2.6,2.6,0,0,1,2.4,2.2c.3,1.5.7,4.8,1,6s.3.5.5.6v.3l-4.9.5a4.9,4.9,0,0,1-.4-1.1c-.2-1.7-.3-3.2-.5-4.4s-.7-1.9-1.8-1.8h-1.4Z" transform="translate(-58.7 -77.1)"/><path class="a" d="M150.5,160.5h0l1.7,8.5,2.4-.9-4.1-7.6Zm-1.2,17.1-2.5-19.5,5.1-1.8,10.4,16.6-4.3,1.5-1.8-3.3-3.4,1.2.8,3.7Z" transform="translate(-58.7 -77.1)"/><path class="a" d="M168.5,164.9c2.6-1.6,1.9-2.7.3-4.7l-3.7-5c-1.4-1.8-2.1-1.4-3.9-.2l7.3,9.9Zm-1.5,5.4-11.4-15.4,3.9-2.9c1.3-.9,2.9-2.1,4.6-2.3s3.3,1.2,4.4,2.6l5.1,6.9c1.1,1.5,1.5,3,.9,4.4a7.4,7.4,0,0,1-2.7,3.1Z" transform="translate(-58.7 -77.1)"/><path class="a" d="M171.2,144.6h-.1l6.8,5.4,1.3-2.3-8-3.2Zm10.1,13.8-14.5-13.1,2.7-4.7,18.7,5.9-2.3,3.9-3.5-1.3-1.8,3.1,3,2.3Z" transform="translate(-58.7 -77.1)"/></svg>